<?xml version="1.0" standalone="no"?><!DOCTYPE svg PUBLIC "-//W3C//DTD SVG 1.1//EN" "http://www.w3.org/Graphics/SVG/1.1/DTD/svg11.dtd"><svg t="1623591645093" class="icon" viewBox="0 0 1024 1024" version="1.1" xmlns="http://www.w3.org/2000/svg" p-id="3644" xmlns:xlink="http://www.w3.org/1999/xlink" width="200" height="200"><defs><style type="text/css"></style></defs><path d="M512 508.8m-469.5 0a469.5 469.5 0 1 0 939 0 469.5 469.5 0 1 0-939 0Z" fill="#242424" p-id="3645"></path><path d="M361.7 563.7c16 16 41.9 16 57.9 0l61.6-61.6 85.8 85.8c4.9 4.9 10.6 8.2 16.8 10.1 14.4 5.1 31 1.8 42.6-9.7l176.7-176.7c16-16 16-41.9 0-57.9s-41.9-16-57.9 0L596.8 501.9 510 415c-16-16-41.9-16-57.9 0-1 1-1.9 2-2.8 3.1l-87.6 87.6c-16 16-16 42 0 58z" fill="#FFFFFF" p-id="3646"></path><path d="M771.2 692.9H315.5c-11.5-1.9-20.5-11.3-21.8-23V263.2c0-22.6-18.3-41-41-41s-41 18.3-41 41v448c2.1 34.1 29.3 61.4 63.4 63.7h496.1c22.6 0 41-18.3 41-41s-18.4-41-41-41z" fill="#FFFFFF" p-id="3647"></path></svg>